<svg xmlns="http://www.w3.org/2000/svg" viewBox="0 0 48 48"><defs><style>.cls-1{fill:#374f68;}.cls-2{fill:#425b72;}.cls-3{fill:#fc6;}.cls-4{fill:#ffde76;}.cls-5{fill:#7c7d7d;}.cls-6{fill:#919191;}.cls-7{fill:#747575;}.cls-8{fill:#edb996;}.cls-9{fill:#f6ccaf;}</style></defs><title>forklift car bring a box</title><g id="forklift_car_bring_a_box" data-name="forklift car bring a box"><path class="cls-1" d="M11,38a5,5,0,1,1-8-4A5,5,0,0,1,11,38Z"/><path class="cls-2" d="M11,38a4.78,4.78,0,0,1-.14,1.17,5,5,0,0,1-8.72-4.33A5,5,0,0,1,11,38Z"/><path class="cls-1" d="M33,39a4,4,0,1,1-6.93-2.72A4,4,0,0,1,33,39Z"/><path class="cls-2" d="M32.93,39.72c-2.73,3-7.69.37-6.86-3.44C28.81,33.31,33.76,35.92,32.93,39.72Z"/><path class="cls-3" d="M33,31v4H29a4,4,0,0,0-4,4H10.9A5,5,0,0,0,3,34V28H14l1,6h8l3-3Z"/><path class="cls-4" d="M33,31v4H29a4,4,0,0,0-3.46,2c-10.46,0-12.28.41-15.06-1.22a5,5,0,0,0-2.74-2.47A9,9,0,0,1,6,28h8l1,6h8l3-3Z"/><path class="cls-5" d="M37,11V41H33V11a2,2,0,0,1,4,0Z"/><path class="cls-6" d="M37,11c0,29.13-.1,28,0,28a2,2,0,0,1-2-2V9A2,2,0,0,1,37,11Z"/><polygon class="cls-7" points="47 41 37 41 37 37 45 37 47 41"/><path class="cls-5" d="M45,41H37V39h4.76A3.62,3.62,0,0,1,45,41Z"/><polygon class="cls-1" points="14 24 14 28 6 28 6 18 9 18 9 24 14 24"/><path class="cls-2" d="M14,24v2H9a2,2,0,0,1-2-2V18H9v6Z"/><rect class="cls-8" x="37" y="27" width="10" height="10"/><path class="cls-9" d="M47,27c0,8.55-.1,8,0,8a8,8,0,0,1-8-8Z"/><rect class="cls-8" x="37" y="17" width="10" height="10"/><path class="cls-9" d="M47,17c0,8.55-.1,8,0,8a8,8,0,0,1-8-8Z"/><path class="cls-3" d="M17,8v3H11V8a3,3,0,0,1,6,0Z"/><path class="cls-4" d="M17,8v2H16a3,3,0,0,1-2.24-5h0A3,3,0,0,1,17,8Z"/><path d="M6,37a1,1,0,0,0,0,2A1,1,0,0,0,6,37Z"/><path d="M29,38a1,1,0,0,0,0,2A1,1,0,0,0,29,38Z"/><path d="M47,16H38V11a3,3,0,0,0-6,0c0,21.11.14,19-.32,19C23.34,9.16,24,10,23,10H18V8a4,4,0,0,0-8,0v2H5a1,1,0,0,0-1,1V27H3a1,1,0,0,0-1,1v5.54A6,6,0,0,0,0,38c0,6.7,9.4,8.34,11.65,2H24.1A5,5,0,0,0,29,44a5.11,5.11,0,0,0,4-2H47a1,1,0,0,0,.89-1.45L46.62,38H47a1,1,0,0,0,1-1V17A1,1,0,0,0,47,16Zm-6,2v1a1,1,0,0,0,2,0V18h3v8H38V18ZM38,36V28h3v1a1,1,0,0,0,2,0V28h3v8ZM12,8a2,2,0,0,1,4,0v2H12Zm10.32,4,7.2,18h-3l-6.16-7.92.38-.37a1,1,0,0,0-1.42-1.42l-2,2a1,1,0,0,0,1.42,1.42c.28-.29-.44-1,6,7.21L22.59,33H15.85c-1-6.1-.85-4.07-.85-9a1,1,0,0,0-1-1H10V18a1,1,0,0,0-1-1H6V12ZM6,19H8v5a1,1,0,0,0,1,1h4v2H6ZM6,42a4,4,0,1,1,4-4A4,4,0,0,1,6,42ZM4,32.35V29h9.15L14,34.16A1,1,0,0,0,15,35h8c.55,0,.47-.06,3.41-3H32v2H29a5,5,0,0,0-4.9,4H12A6,6,0,0,0,4,32.35ZM29,42a3,3,0,1,1,3-3A3,3,0,0,1,29,42Zm5-31a1,1,0,0,1,2,0V40H34ZM45.38,40H38V38h6.38Z"/></g></svg>