<svg width="32" height="32" viewBox="0 0 32 32" fill="none" xmlns="http://www.w3.org/2000/svg">
<path d="M24.3315 17.8795C23.2835 20.003 21.8649 22.1202 20.4115 24.0201C18.9626 25.914 17.5088 27.5536 16.4154 28.7209C16.2701 28.8761 16.1313 29.0226 16 29.1601C15.8687 29.0226 15.7299 28.8761 15.5846 28.7209C14.4912 27.5536 13.0374 25.914 11.5885 24.0201C10.1351 22.1202 8.71649 20.003 7.66846 17.8795C6.60961 15.7342 6 13.7238 6 12C6 6.47715 10.4772 2 16 2C21.5228 2 26 6.47715 26 12C26 13.7238 25.3904 15.7342 24.3315 17.8795ZM16 32C16 32 28 20.6274 28 12C28 5.37258 22.6274 0 16 0C9.37258 0 4 5.37258 4 12C4 20.6274 16 32 16 32Z" fill="black"/>
<path d="M16 16C13.7909 16 12 14.2091 12 12C12 9.79086 13.7909 8 16 8C18.2091 8 20 9.79086 20 12C20 14.2091 18.2091 16 16 16ZM16 18C19.3137 18 22 15.3137 22 12C22 8.68629 19.3137 6 16 6C12.6863 6 10 8.68629 10 12C10 15.3137 12.6863 18 16 18Z" fill="black"/>
</svg>
