<svg id="visual" viewBox="0 0 960 540" width="960" height="540" xmlns="http://www.w3.org/2000/svg" xmlns:xlink="http://www.w3.org/1999/xlink" version="1.1"><g stroke-width="1" stroke-linejoin="bevel"><path d="M522.3 294L564.3 313L592.3 197Z" fill="#a6acbe" stroke="#a6acbe"></path><path d="M564.3 313L586 319L592.3 197Z" fill="#243772" stroke="#243772"></path><path d="M706.7 306L654 138L592.3 197Z" fill="#98a0b6" stroke="#98a0b6"></path><path d="M452.7 113L447.7 162L592.3 197Z" fill="#717ba0" stroke="#717ba0"></path><path d="M592.3 197L447.7 162L522.3 294Z" fill="#717ba0" stroke="#717ba0"></path><path d="M586 319L706.7 306L592.3 197Z" fill="#8b93af" stroke="#8b93af"></path><path d="M564.3 313L640 405L586 319Z" fill="#243772" stroke="#243772"></path><path d="M586 319L640 405L706.7 306Z" fill="#a6acbe" stroke="#a6acbe"></path><path d="M511.3 494L640 405L564.3 313Z" fill="#7e87a7" stroke="#7e87a7"></path><path d="M447.7 162L396.7 294L522.3 294Z" fill="#243772" stroke="#243772"></path><path d="M522.3 294L414.7 398L564.3 313Z" fill="#98a0b6" stroke="#98a0b6"></path><path d="M706.7 306L700.7 136L654 138Z" fill="#8b93af" stroke="#8b93af"></path><path d="M599 70L592.3 197L654 138Z" fill="#7e87a7" stroke="#7e87a7"></path><path d="M599 70L452.7 113L592.3 197Z" fill="#586390" stroke="#586390"></path><path d="M367 237L382.7 303L396.7 294Z" fill="#98a0b6" stroke="#98a0b6"></path><path d="M659 0L599 70L654 138Z" fill="#a6acbe" stroke="#a6acbe"></path><path d="M367 237L396.7 294L447.7 162Z" fill="#4b5889" stroke="#4b5889"></path><path d="M396.7 294L414.7 398L522.3 294Z" fill="#3f4d81" stroke="#3f4d81"></path><path d="M640 405L685 406L706.7 306Z" fill="#98a0b6" stroke="#98a0b6"></path><path d="M378 76L367 237L447.7 162Z" fill="#8b93af" stroke="#8b93af"></path><path d="M382.7 303L414.7 398L396.7 294Z" fill="#32427a" stroke="#32427a"></path><path d="M599 70L489.3 49L452.7 113Z" fill="#717ba0" stroke="#717ba0"></path><path d="M452.7 113L378 76L447.7 162Z" fill="#4b5889" stroke="#4b5889"></path><path d="M706.7 306L776.7 176L700.7 136Z" fill="#3f4d81" stroke="#3f4d81"></path><path d="M659 0L546.3 0L599 70Z" fill="#646f98" stroke="#646f98"></path><path d="M852.3 225L776.7 176L706.7 306Z" fill="#4b5889" stroke="#4b5889"></path><path d="M414.7 398L511.3 494L564.3 313Z" fill="#32427a" stroke="#32427a"></path><path d="M640 405L655 540L685 406Z" fill="#586390" stroke="#586390"></path><path d="M659 0L654 138L700.7 136Z" fill="#586390" stroke="#586390"></path><path d="M599 70L546.3 0L489.3 49Z" fill="#4b5889" stroke="#4b5889"></path><path d="M786.7 418L768.7 410L741.7 540Z" fill="#98a0b6" stroke="#98a0b6"></path><path d="M685 406L768.7 410L706.7 306Z" fill="#586390" stroke="#586390"></path><path d="M395.7 0L378 76L489.3 49Z" fill="#7e87a7" stroke="#7e87a7"></path><path d="M489.3 49L378 76L452.7 113Z" fill="#586390" stroke="#586390"></path><path d="M779.7 0L659 0L700.7 136Z" fill="#a6acbe" stroke="#a6acbe"></path><path d="M741.7 540L768.7 410L685 406Z" fill="#586390" stroke="#586390"></path><path d="M863.3 290L852.3 225L706.7 306Z" fill="#7e87a7" stroke="#7e87a7"></path><path d="M286 368L333 410L382.7 303Z" fill="#7e87a7" stroke="#7e87a7"></path><path d="M382.7 303L333 410L414.7 398Z" fill="#8b93af" stroke="#8b93af"></path><path d="M444.7 540L493.3 540L511.3 494Z" fill="#8b93af" stroke="#8b93af"></path><path d="M286 368L382.7 303L235.3 304Z" fill="#7e87a7" stroke="#7e87a7"></path><path d="M863.3 290L706.7 306L768.7 410Z" fill="#7e87a7" stroke="#7e87a7"></path><path d="M776.7 176L854.3 102L700.7 136Z" fill="#32427a" stroke="#32427a"></path><path d="M444.7 540L511.3 494L414.7 398Z" fill="#8b93af" stroke="#8b93af"></path><path d="M511.3 494L655 540L640 405Z" fill="#98a0b6" stroke="#98a0b6"></path><path d="M786.7 418L863.3 290L768.7 410Z" fill="#717ba0" stroke="#717ba0"></path><path d="M493.3 540L655 540L511.3 494Z" fill="#243772" stroke="#243772"></path><path d="M235.3 304L382.7 303L367 237Z" fill="#8b93af" stroke="#8b93af"></path><path d="M546.3 0L395.7 0L489.3 49Z" fill="#32427a" stroke="#32427a"></path><path d="M378 76L260 179L367 237Z" fill="#32427a" stroke="#32427a"></path><path d="M327 540L444.7 540L414.7 398Z" fill="#8b93af" stroke="#8b93af"></path><path d="M327 540L414.7 398L333 410Z" fill="#4b5889" stroke="#4b5889"></path><path d="M267 0L260 179L378 76Z" fill="#32427a" stroke="#32427a"></path><path d="M960 193L854.3 102L852.3 225Z" fill="#586390" stroke="#586390"></path><path d="M852.3 225L854.3 102L776.7 176Z" fill="#32427a" stroke="#32427a"></path><path d="M854.3 102L779.7 0L700.7 136Z" fill="#a6acbe" stroke="#a6acbe"></path><path d="M260 179L235.3 304L367 237Z" fill="#646f98" stroke="#646f98"></path><path d="M655 540L741.7 540L685 406Z" fill="#4b5889" stroke="#4b5889"></path><path d="M884.3 412L901.3 329L863.3 290Z" fill="#98a0b6" stroke="#98a0b6"></path><path d="M884.3 412L863.3 290L786.7 418Z" fill="#98a0b6" stroke="#98a0b6"></path><path d="M863.3 290L960 272L852.3 225Z" fill="#717ba0" stroke="#717ba0"></path><path d="M800.3 540L884.3 412L786.7 418Z" fill="#a6acbe" stroke="#a6acbe"></path><path d="M741.7 540L800.3 540L786.7 418Z" fill="#4b5889" stroke="#4b5889"></path><path d="M196.3 423L327 540L333 410Z" fill="#243772" stroke="#243772"></path><path d="M196.3 423L333 410L286 368Z" fill="#3f4d81" stroke="#3f4d81"></path><path d="M960 89L855.3 0L854.3 102Z" fill="#243772" stroke="#243772"></path><path d="M854.3 102L855.3 0L779.7 0Z" fill="#3f4d81" stroke="#3f4d81"></path><path d="M395.7 0L267 0L378 76Z" fill="#a6acbe" stroke="#a6acbe"></path><path d="M260 179L162.3 221L235.3 304Z" fill="#8b93af" stroke="#8b93af"></path><path d="M960 310L960 272L901.3 329Z" fill="#32427a" stroke="#32427a"></path><path d="M901.3 329L960 272L863.3 290Z" fill="#646f98" stroke="#646f98"></path><path d="M960 422L960 310L901.3 329Z" fill="#7e87a7" stroke="#7e87a7"></path><path d="M960 422L901.3 329L884.3 412Z" fill="#98a0b6" stroke="#98a0b6"></path><path d="M960 272L960 193L852.3 225Z" fill="#32427a" stroke="#32427a"></path><path d="M163.3 135L162.3 221L260 179Z" fill="#3f4d81" stroke="#3f4d81"></path><path d="M235.3 304L196.3 423L286 368Z" fill="#243772" stroke="#243772"></path><path d="M139.7 410L196.3 423L235.3 304Z" fill="#8b93af" stroke="#8b93af"></path><path d="M267 0L244.3 0L260 179Z" fill="#717ba0" stroke="#717ba0"></path><path d="M158.3 78L163.3 135L260 179Z" fill="#32427a" stroke="#32427a"></path><path d="M162.3 221L143.7 256L235.3 304Z" fill="#7e87a7" stroke="#7e87a7"></path><path d="M126.7 234L143.7 256L162.3 221Z" fill="#717ba0" stroke="#717ba0"></path><path d="M960 193L960 89L854.3 102Z" fill="#32427a" stroke="#32427a"></path><path d="M960 540L960 422L884.3 412Z" fill="#586390" stroke="#586390"></path><path d="M163.3 135L126.7 234L162.3 221Z" fill="#586390" stroke="#586390"></path><path d="M143.7 256L139.7 410L235.3 304Z" fill="#7e87a7" stroke="#7e87a7"></path><path d="M244.3 0L158.3 78L260 179Z" fill="#586390" stroke="#586390"></path><path d="M163.3 135L0 216L126.7 234Z" fill="#98a0b6" stroke="#98a0b6"></path><path d="M244.3 0L158.7 72L158.3 78Z" fill="#4b5889" stroke="#4b5889"></path><path d="M0 96L0 216L163.3 135Z" fill="#8b93af" stroke="#8b93af"></path><path d="M73.7 390L139.7 410L143.7 256Z" fill="#7e87a7" stroke="#7e87a7"></path><path d="M196.3 423L161.3 540L327 540Z" fill="#98a0b6" stroke="#98a0b6"></path><path d="M960 89L960 0L855.3 0Z" fill="#a6acbe" stroke="#a6acbe"></path><path d="M800.3 540L960 540L884.3 412Z" fill="#32427a" stroke="#32427a"></path><path d="M139.7 410L161.3 540L196.3 423Z" fill="#243772" stroke="#243772"></path><path d="M0 325L73.7 390L143.7 256Z" fill="#7e87a7" stroke="#7e87a7"></path><path d="M139.7 410L103.7 540L161.3 540Z" fill="#717ba0" stroke="#717ba0"></path><path d="M0 325L143.7 256L126.7 234Z" fill="#646f98" stroke="#646f98"></path><path d="M244.3 0L88.7 0L158.7 72Z" fill="#32427a" stroke="#32427a"></path><path d="M158.7 72L88.7 0L158.3 78Z" fill="#586390" stroke="#586390"></path><path d="M73.7 390L103.7 540L139.7 410Z" fill="#717ba0" stroke="#717ba0"></path><path d="M0 96L163.3 135L158.3 78Z" fill="#717ba0" stroke="#717ba0"></path><path d="M73.7 390L0 479L103.7 540Z" fill="#4b5889" stroke="#4b5889"></path><path d="M0 216L0 325L126.7 234Z" fill="#646f98" stroke="#646f98"></path><path d="M0 325L0 391L73.7 390Z" fill="#8b93af" stroke="#8b93af"></path><path d="M88.7 0L0 96L158.3 78Z" fill="#8b93af" stroke="#8b93af"></path><path d="M0 391L0 479L73.7 390Z" fill="#4b5889" stroke="#4b5889"></path><path d="M88.7 0L0 0L0 96Z" fill="#4b5889" stroke="#4b5889"></path><path d="M0 479L0 540L103.7 540Z" fill="#243772" stroke="#243772"></path></g></svg>