<svg xmlns="http://www.w3.org/2000/svg" viewBox="0 0 48 48"><defs><style>.cls-1{fill:#7c7d7d;}.cls-2{fill:#919191;}.cls-3{fill:#c6c3d8;}.cls-4{fill:#dad7e5;}</style></defs><title>industrial robot</title><g id="industrial_robot" data-name="industrial robot"><path class="cls-1" d="M19,47H1L2.12,36H17.88C19,46.55,18.73,44.34,19,47Z"/><path class="cls-2" d="M18.8,45H13.05a8.17,8.17,0,0,1-8.13-9c0-.1-.77,0,13,0Z"/><path class="cls-3" d="M15,31v5H5V31a5,5,0,0,1,10,0Z"/><path class="cls-4" d="M15,31v3H12a5,5,0,0,1-5-5,4.6,4.6,0,0,1,.64-2.41A5,5,0,0,1,15,31Z"/><path class="cls-2" d="M15,33c0-2.15.22-3.84-1.46-5.54a5,5,0,0,0-5.84-.9l8.59-7.27L17,20a4,4,0,0,0,5.66,3.63Z"/><path class="cls-1" d="M22.66,23.63a3.79,3.79,0,0,1-2.79.19l-5,6.11A13.65,13.65,0,0,1,15,33Z"/><path class="cls-3" d="M25,20a4,4,0,1,1-6.93-2.72A4,4,0,0,1,25,20Z"/><path class="cls-4" d="M24.94,20.7c-2.66,3-7.71.44-6.87-3.42A4,4,0,0,1,24.94,20.7Z"/><path class="cls-3" d="M12,7A4,4,0,1,1,5.07,4.28,4,4,0,0,1,12,7Z"/><path class="cls-4" d="M11.93,7.72c-2.73,3-7.69.37-6.86-3.44C7.81,1.31,12.76,3.92,11.93,7.72Z"/><path class="cls-1" d="M21,16a4,4,0,0,0-4,4L8,11h8Z"/><path class="cls-2" d="M19.36,14.36a4,4,0,0,0-1.54,1.22,2,2,0,0,1-3,.22L10,11h6Z"/><path class="cls-1" d="M28,3v8H8A4,4,0,0,0,8,3Z"/><path class="cls-2" d="M28,3V9H15.39a2,2,0,0,1-1.7-3,3,3,0,0,0-.23-3Z"/><rect class="cls-3" x="28" y="4" width="4" height="6"/><path class="cls-4" d="M31,8v2H28V5A3,3,0,0,1,31,8Z"/><rect class="cls-1" x="32" y="2" width="4" height="10"/><path class="cls-2" d="M36,2c0,9.57-.1,9,0,9a3,3,0,0,1-3-3V2Z"/><polygon class="cls-4" points="41 7 42 9 47 9 47 13 39 13 36 7 39 1 47 1 47 5 42 5 41 7"/><path class="cls-3" d="M39.34,8.68c-1.55-3.11,0-5.45,1.16-7.68H39L36,7l3,6h8V12H44.71A6,6,0,0,1,39.34,8.68Z"/><path d="M47,6a1,1,0,0,0,1-1V1a1,1,0,0,0-1-1H39c-.79,0-.87.51-2,2.76V2a1,1,0,0,0-1-1H32a1,1,0,0,0-1,1V3H29a1,1,0,0,0-1-1H8a5,5,0,0,0-.46,10l7.27,7.28-7.68,6.5A6,6,0,0,0,4,31v4H2.13a1,1,0,0,0-1,.9C-.1,47.91-.11,47.12.2,47.56c.43.63-1.36.44,23.8.44a1,1,0,0,0,0-2H19.9l-1-10.1a1,1,0,0,0-1-.9H16V33.36l7.32-9a5,5,0,0,0-1.86-9.35L18.41,12H28a1,1,0,0,0,1-1h2v1a1,1,0,0,0,1,1h4a1,1,0,0,0,1-1v-.76C38.18,13.61,38.22,14,39,14h8a1,1,0,0,0,1-1V9a1,1,0,0,0-1-1H42.62l-.5-1,.5-1ZM5,7a3,3,0,1,1,3,3A3,3,0,0,1,5,7Zm6,18.09,5.09-4.31a5,5,0,0,0,4.23,4.15L16,30.26A6,6,0,0,0,11,25.09ZM17.89,46H2.11L3,37H17ZM6,35V31a4,4,0,0,1,8,0v4ZM22.24,22.72A3,3,0,1,1,21,17,3,3,0,0,1,22.24,22.72ZM19,15.42A5,5,0,0,0,16.42,18l-6-6h5.18ZM12,10a4.89,4.89,0,0,0,0-6H27v6ZM29,9V5h2V9Zm6,2H33V3h2Zm5.11-3.55c1,2,1.1,2.55,1.89,2.55h4v2H39.62l-2.5-5,2.5-5H46V4c-5.43,0-4.33-.58-5.89,2.55A1,1,0,0,0,40.11,7.45Z"/><circle cx="10" cy="31" r="2"/><path d="M20,20a1,1,0,0,0,2,0A1,1,0,0,0,20,20Z"/><path d="M9,7A1,1,0,0,0,7,7,1,1,0,0,0,9,7Z"/><path d="M12,41H8a1,1,0,0,0,0,2h4A1,1,0,0,0,12,41Z"/></g></svg>